#!OML:ASF E:\Mandelcareful walks\Project 1\Capture day 1\Session 1\Subject1.ASF
:FULLY-SPECIFIED
:DEGREES
45
root -27.6838 16.6109 1.73949 -168.201 75.394 -187.487
lowerback -21.9475 2.74821 -2.07924
upperback -0.941299 4.40712 -0.95596
thorax 11.1852 2.04535 1.50086
lowerneck -6.96441 15.5688 15.4702
upperneck 23.2726 23.4168 -10.7224
head 11.8859 11.3305 -2.85092
rclavicle -5.1858e-014 -1.68967e-014
rhumerus -34.0767 -20.5598 -72.9192
rradius 28.9952
rwrist -4.2937
rhand -5.72356 -33.1302
rfingers 7.12502
rthumb 20.0981 -62.1106
lclavicle -5.1858e-014 -1.68967e-014
lhumerus -25.883 13.8257 82.0349
lradius 19.92
lwrist -2.27554
lhand -21.4674 -10.6347
lfingers 7.12502
lthumb 4.92309 19.2881
rfemur -17.7676 3.66995 13.0318
rtibia 19.5365
rfoot -40.5006 -37.2636
rtoes 24.6303
lfemur -25.051 -4.0142 -15.479
ltibia 26.7241
lfoot -19.8245 18.1418
ltoes -9.77813
46
root -27.6859 16.61 1.73644 -169.354 75.3673 -188.506
lowerback -21.7904 2.74806 -2.30881
upperback -0.864262 4.46417 -1.01285
thorax 11.1713 2.06025 1.57828
lowerneck -6.97913 15.5508 15.4993
upperneck 23.2381 23.4046 -10.8133
head 11.8909 11.3188 -2.88742
rclavicle -5.58585e-014 1.11319e-014
rhumerus -33.7631 -20.1252 -73.2466
rradius 29.2765
rwrist -4.92333
rhand -5.56887 -33.0164
rfingers 7.12502
rthumb 20.2468 -61.9812
lclavicle -5.58585e-014 1.11319e-014
lhumerus -25.6815 13.364 82.186
lradius 20.1488
lwrist -2.27167
lhand -21.4153 -10.8377
lfingers 7.12502
lthumb 4.97333 19.0839
rfemur -17.6681 3.50005 12.7617
rtibia 19.7267
rfoot -40.4786 -37.1503
rtoes 24.5456
lfemur -24.7926 -4.15952 -15.7795
ltibia 26.566
lfoot -19.8531 18.321
ltoes -9.96548
47
root -27.6923 16.6114 1.73052 -170.056 75.3607 -189.205
lowerback -21.7437 2.76144 -2.43111
upperback -0.831232 4.51318 -1.03749
thorax 11.1739 2.07672 1.63328
lowerneck -6.91557 15.503 15.5079
upperneck 23.1511 23.375 -10.9682
head 11.8645 11.2985 -2.95496
rclavicle -7.89921e-014 3.29983e-014
rhumerus -33.4803 -19.7644 -73.4876
rradius 29.5918
rwrist -5.37927
rhand -5.19374 -32.8529
rfingers 7.12502
rthumb 20.6073 -61.779
lclavicle -7.89921e-014 3.29983e-014
lhumerus -25.4722 12.8708 82.3826
lradius 20.3941
lwrist -2.23188
lhand -21.1866 -11.2236
lfingers 7.12502
lthumb 5.19414 18.6927
rfemur -17.7584 3.0466 12.5894
rtibia 19.9058
rfoot -40.035 -36.9282
rtoes 24.3577
lfemur -24.7087 -4.20086 -16.0187
ltibia 26.4147
lfoot -19.7929 18.426
ltoes -10.2161
48
root -27.7077 16.6168 1.71813 -170.336 75.579 -189.633
lowerback -21.753 2.8667 -2.35933
upperback -0.839763 4.63838 -1.06869
thorax 11.1735 2.14037 1.59653
lowerneck -6.9302 15.5118 15.3827
upperneck 23.1026 23.406 -11.0062
head 11.8418 11.2999 -2.94596
rclavicle -1.98785e-016 1.07344e-014
rhumerus -33.1812 -19.3434 -73.7444
rradius 30.0045
rwrist -5.6913
rhand -4.96074 -32.834
rfingers 7.12502
rthumb 20.8311 -61.7357
lclavicle -1.98785e-016 1.07344e-014
lhumerus -25.2205 12.481 82.6682
lradius 20.7008
lwrist -1.88687
lhand -21.0512 -11.142
lfingers 7.12502
lthumb 5.32488 18.7711
rfemur -18.1545 2.10007 12.5022
rtibia 20.0903
rfoot -38.7057 -36.4664
rtoes 23.6143
lfemur -24.8111 -4.10356 -16.2119
ltibia 26.2699
lfoot -19.6904 18.561
ltoes -10.2771
49
root -27.7183 16.6217 1.71064 -170.77 75.7903 -190.146
lowerback -21.684 2.92241 -2.38444
upperback -0.829422 4.71596 -1.07652
thorax 11.143 2.17611 1.62153
lowerneck -7.07546 15.5625 15.1842
upperneck 23.1948 23.4737 -10.8983
head 11.8725 11.3154 -2.85645
rclavicle -5.73494e-014 1.88845e-014
rhumerus -32.9809 -18.58 -74.1776
rradius 30.7002
rwrist -6.3086
rhand -4.93975 -32.935
rfingers 7.12502
rthumb 20.8513 -61.8345
lclavicle -5.73494e-014 1.88845e-014
lhumerus -25.0283 11.8876 83.03
lradius 21.0332
lwrist -1.26768
lhand -20.962 -10.8017
lfingers 7.12502
lthumb 5.41105 19.1092
rfemur -18.4447 1.23715 12.4293
rtibia 20.2825
rfoot -37.5296 -36.0149
rtoes 22.8329
lfemur -24.8115 -3.73237 -16.4543
ltibia 26.1233
lfoot -19.5451 18.4275
ltoes -10.4288
